<?xml version="1.0" encoding="utf-8"?>
<svg xmlns="http://www.w3.org/2000/svg" viewBox="223.8486 263.7129 31.6508 41.136" width="31.6508px" height="41.136px"><path d="M 606.597 465.858 C 604.037 464.242 602.757 461.77 602.757 458.442 C 602.757 458.156 602.765 457.881 602.781 457.616 C 602.782 457.616 602.784 457.615 602.785 457.615 C 602.787 457.614 602.789 457.614 602.79 457.613 C 604.376 457.641 607.154 457.635 609.101 457.545 C 609.092 457.614 609.081 457.689 609.069 457.77 C 609.021 458.09 608.997 458.426 608.997 458.778 C 608.997 460.218 609.725 461.29 611.181 461.994 C 612.637 462.698 614.677 463.05 617.301 463.05 C 620.021 463.05 622.149 462.562 623.685 461.586 C 625.221 460.61 625.989 459.242 625.989 457.482 C 625.989 456.394 625.637 455.458 624.933 454.674 C 624.229 453.89 623.349 453.234 622.293 452.706 C 621.284 452.202 619.881 451.588 618.084 450.864 C 621.756 450.914 626.209 450.941 630.662 450.942 C 630.796 451.102 630.926 451.266 631.053 451.434 C 632.093 452.81 632.613 454.506 632.613 456.522 C 632.613 460.298 631.181 463.202 628.317 465.234 C 625.453 467.266 621.621 468.282 616.821 468.282 C 612.565 468.282 609.157 467.474 606.597 465.858 Z M 611.805 448.026 C 611.183 447.68 610.597 447.283 610.047 446.837 C 614.248 446.888 620.442 446.925 624.691 446.886 C 625.678 447.339 626.543 447.767 627.285 448.17 C 627.909 448.509 628.495 448.9 629.041 449.343 C 623.298 449.33 617.676 449.267 614.047 449.161 C 613.216 448.774 612.469 448.396 611.805 448.026 Z M 607.821 444.498 C 606.717 443.01 606.165 441.162 606.165 438.954 C 606.165 436.65 606.781 434.602 608.013 432.81 C 609.245 431.018 611.021 429.626 613.341 428.634 C 615.661 427.642 618.389 427.146 621.525 427.146 C 623.861 427.146 626.005 427.49 627.957 428.178 C 629.909 428.866 631.469 429.914 632.637 431.322 C 633.805 432.73 634.389 434.458 634.389 436.506 C 634.433 436.732 634.4 437.017 634.29 437.361 C 632.575 437.355 629.996 437.359 628.091 437.423 C 628.13 436.975 628.149 436.669 628.149 436.506 C 628.149 435.162 627.493 434.138 626.181 433.434 C 624.869 432.73 623.237 432.378 621.285 432.378 C 618.533 432.378 616.429 432.882 614.973 433.89 C 613.517 434.898 612.789 436.314 612.789 438.138 C 612.789 439.354 613.165 440.394 613.917 441.258 C 614.669 442.122 615.605 442.842 616.725 443.418 C 617.724 443.932 619.078 444.534 620.789 445.226 C 616.456 445.196 611.191 445.096 608.258 445.057 C 608.109 444.876 607.963 444.69 607.821 444.498 Z" fill="rgb(230,0,35)" id="object-0" transform="matrix(1, 0, 0, 1, -378.908447265625, -163.43305969238278)"/></svg>